<svg xmlns="http://www.w3.org/2000/svg" xmlns:xlink="http://www.w3.org/1999/xlink" viewBox="0 0 1340 636" preserveAspectRatio="xMidYMid meet">
  <defs>
    <linearGradient id="home-stats-gradient" x1="0" y1="318" x2="1340" y2="318" gradientUnits="userSpaceOnUse">
      <stop offset="0" stop-color="#000000"/>
      <stop offset="1" stop-color="#424141"/>
    </linearGradient>
    <clipPath id="home-stats-shape-clip">
      <path d="M0 124.69C0 120.189 1.51817 115.82 4.30899 112.288L87.05 7.59871C90.843 2.79948 96.6238 0 102.741 0H1320C1331.05 0 1340 8.9543 1340 20V527.716C1340 533.02 1337.89 538.107 1334.14 541.858L1245.86 630.142C1242.11 633.893 1237.02 636 1231.72 636H20C8.95429 636 0 627.046 0 616V124.69Z"/>
    </clipPath>
  </defs>
  <g clip-path="url(#home-stats-shape-clip)">
    <!-- Фон по всей форме (градиент) -->
    <path fill="url(#home-stats-gradient)" d="M0 124.69C0 120.189 1.51817 115.82 4.30899 112.288L87.05 7.59871C90.843 2.79948 96.6238 0 102.741 0H1320C1331.05 0 1340 8.9543 1340 20V527.716C1340 533.02 1337.89 538.107 1334.14 541.858L1245.86 630.142C1242.11 633.893 1237.02 636 1231.72 636H20C8.95429 636 0 627.046 0 616V124.69Z"/>
    <!-- Карта справа, обрезанная формой -->
    <image href="/images/image.png" x="670" y="0" width="670" height="636" preserveAspectRatio="xMidYMid slice"/>
  </g>
</svg>
