<svg width="272" height="271" viewBox="0 0 272 271" fill="none" xmlns="http://www.w3.org/2000/svg">
<path fill-rule="evenodd" clip-rule="evenodd" d="M201.162 267.651C202.3 267.652 203.896 269.206 203.896 270.387C203.896 270.4 203.896 270.412 203.895 270.425H197.262C196.728 270.959 196.242 271.443 199.197 268.47L199.205 268.477C199.701 267.968 200.024 267.651 201.162 267.651ZM24.25 243.656C25.3528 242.526 27.1724 242.553 28.2353 243.722L28.2373 243.72C29.1842 244.748 29.1996 246.33 28.2714 247.381L8.63277 267.09L8.6357 267.093C7.6762 267.966 7.48794 269.347 8.07613 270.425H0.327101C-0.251881 269.35 -0.0617442 267.976 0.893507 267.107L0.876906 267.091L24.2451 243.652L24.25 243.656ZM24.4287 259.073C25.4572 257.943 27.1943 257.88 28.3046 258.902L36.1865 266.783C37.1594 267.799 37.1962 269.369 36.3125 270.425H28.4277C28.6995 270.16 28.9706 269.896 29.2441 269.635C29.7808 269.133 30.1169 268.213 29.2382 267.502L27.4023 265.665C27.0371 265.336 26.6395 265.187 26.2548 265.227C25.9153 265.365 25.597 265.574 25.3232 265.854L25.3085 265.84L20.625 270.425H14.6425C14.4604 269.657 14.6118 268.824 15.1054 268.16L24.4218 259.066L24.4287 259.073ZM49.625 265.98C50.5122 265.981 50.988 266.436 51.5429 267.037L54.9296 270.425H43.9326C45.3466 269.051 46.624 267.814 47.6025 266.87L47.6044 266.871C48.1044 266.324 48.7373 265.98 49.625 265.98Z" fill="white" fill-opacity="0.2"/>
</svg>
