<?xml version="1.0" encoding="UTF-8"?>
<!DOCTYPE svg PUBLIC "-//W3C//DTD SVG 1.1//EN" "http://www.w3.org/Graphics/SVG/1.1/DTD/svg11.dtd">
<!-- Creator: CorelDRAW 2019 (64-Bit) -->
<svg xmlns="http://www.w3.org/2000/svg" xml:space="preserve" width="297mm" height="210mm" version="1.1" style="shape-rendering:geometricPrecision; text-rendering:geometricPrecision; image-rendering:optimizeQuality; fill-rule:evenodd; clip-rule:evenodd"
viewBox="0 0 29700 21000"
 xmlns:xlink="http://www.w3.org/1999/xlink"
 xmlns:xodm="http://www.corel.com/coreldraw/odm/2003">
 <defs>
  <style type="text/css">
   <![CDATA[
    .fil1 {fill:#FEFEFE}
    .fil0 {fill:#26203A}
    .fil2 {fill:#FEFEFE;fill-rule:nonzero}
   ]]>
  </style>
 </defs>
 <g id="Слой_x0020_1">
  <metadata id="CorelCorpID_0Corel-Layer"/>
  <rect class="fil0" x="8533.15" y="8417.52" width="12525.5" height="4883.83"/>
  <path class="fil1" d="M10172.26 9548.69l0.44 0.46c40.69,-43.3 68.93,-70.34 162.59,-70.34 93.64,0 223.06,127.24 223.06,223.08 0,95.8 -30.85,129.7 -79.4,170.62l-786.22 786.17 -0.74 -0.74c-38.8,32.64 -54.62,52.31 -143.55,52.31 -88.93,0 -223.06,-134.14 -223.06,-223.07 0,-88.93 19.66,-104.73 52.31,-143.51l-0.21 -0.22 2.69 -2.68c6.77,-7.8 14.08,-15.1 21.88,-21.9l770.21 -770.18zm1782.46 -506.01c166.29,0 301.07,134.8 301.07,301.06 0,166.26 -134.78,301.07 -301.07,301.07 -166.26,0 -301.05,-134.81 -301.05,-301.07 0,-166.26 134.79,-301.06 301.05,-301.06zm502.47 1989.54c-40.05,38.21 -62.55,61.68 -154.01,61.68 -91.45,0 -223.08,-131.49 -223.08,-223.08 0,-91.59 23.7,-114.46 62.24,-154.55l-1.46 -1.44c312.8,-302.95 390.9,-388.51 699.32,-696.9l3.86 3.97c40.56,-42 67.36,-68.11 160.46,-68.11 93.11,0 223.07,128.15 223.07,223.08 0,94.9 -29.24,126.45 -75.58,167.32l0.27 0.3c-415.52,415.5 -283.76,276.4 -695.09,687.73l0 0zm-2874.89 1582.03c-40.92,49.73 -76.06,81.48 -172.38,81.48 -96.32,0 -223.06,-130.21 -223.06,-223.09 0,-92.9 25.77,-119.11 67.26,-159.61l-0.55 -0.59c492.1,-489.09 598.19,-593.51 1088.81,-1084.1l0.48 0.49c40.28,-39.86 64.68,-64.49 156.84,-64.49 92.2,0 223.09,130.89 223.09,223.08 0,92.19 -24.67,116.62 -64.57,156.92l0.26 0.28 -1076.18 1069.63zm1567.74 -254.79c-40.79,44.68 -70.51,72.72 -164.77,72.72 -94.2,0 -223.08,-128.84 -223.08,-223.07 0,-94.25 28.08,-124.05 72.8,-164.84l450.82 -468.11c46.65,-44.38 28.72,-155.57 -14.51,-190.69l-636.3 -634.45c-173.17,-172.22 -48.16,-364.52 1.21,-429.09l100.11 -100.11 1.68 1.69 434.13 -434.12c158.02,-137.83 316.78,-89.85 425.65,5.75l312.44 315.75 -0.06 0.03c41.92,40.56 68,67.26 68,160.35 0,93.04 -130.01,223.04 -223.08,223.04 -93.07,0 -119.76,-26.07 -160.31,-67.98l-1.7 1.69 -122.18 -128.03c-42.14,-45.14 -119.58,-73.42 -179.35,0.46l-154.38 154.37c-48.35,53.71 -50.59,115.82 -2.18,165.7l667.12 667.07c31.21,38.61 181.5,227.47 -5.93,422.91 -284.34,296.55 -346.54,360.11 -646,649.06l-0.13 -0.1z"/>
  <path class="fil2" d="M14391.85 11815.83c99.04,0 226.07,-12.92 327.27,-49.52 92.58,-32.3 155.01,-77.51 155.01,-159.33 0,-77.51 -49.52,-135.64 -133.48,-135.64 -40.91,0 -71.05,19.38 -127.03,36.6 -45.22,12.92 -105.5,25.84 -195.93,25.84 -241.14,0 -415.54,-159.32 -417.69,-437.07 0,-269.13 202.38,-508.12 501.66,-508.12 83.97,0 148.56,15.07 195.92,32.3 49.52,17.22 83.97,34.45 127.03,34.45 81.82,0 144.26,-66.75 144.26,-148.56 0,-90.43 -73.2,-137.8 -172.24,-165.79 -83.97,-23.68 -183.01,-32.29 -266.98,-32.29 -497.36,0 -854.76,359.55 -854.76,805.24 0,495.2 335.87,701.89 716.96,701.89zm2082 -1341.35c0,-103.35 -71.05,-146.41 -150.72,-146.41l-943.03 0c-75.36,0 -142.1,43.06 -155.02,142.1l-152.87 1093.75c-6.46,36.61 -10.76,71.05 -10.76,107.66 0,103.34 71.05,144.25 150.71,144.25 75.36,0 139.95,-40.91 155.02,-137.79l148.56 -1074.38 633 0 -133.49 960.26c-4.31,36.61 -10.77,71.05 -10.77,107.66 0,103.34 71.05,144.25 150.71,144.25 73.21,0 139.95,-40.91 155.02,-137.79l152.87 -1093.75c4.31,-38.76 10.77,-73.21 10.77,-109.81zm1365.03 363.87c0,-204.54 -83.97,-344.49 -226.07,-426.31 -122.73,-68.9 -282.05,-83.97 -424.15,-83.97l-260.52 0c-77.51,0 -142.1,47.37 -155.02,142.1l-152.87 1093.75c-6.46,36.61 -10.76,71.05 -10.76,107.66 0,103.34 71.05,144.25 150.71,144.25 75.36,0 142.1,-40.91 155.02,-137.79l45.21 -325.12 221.77 0c215.3,0 368.17,-40.9 477.97,-127.03 120.57,-94.73 178.71,-234.68 178.71,-387.54zm-310.04 -8.62c0,79.67 -32.3,139.95 -77.51,185.17 -53.83,49.52 -131.34,66.74 -219.61,66.74l-232.53 0 66.74 -482.28 185.16 0c73.21,0 144.26,12.92 191.63,45.21 55.98,38.76 86.12,101.19 86.12,185.16zm1718.14 -382.88c0,-83.97 -66.75,-138.15 -148.56,-138.15 -62.44,0 -105.5,30.5 -133.49,84.32l-372.48 677.14 -4.31 0 -206.69 -614.7c-30.14,-90.43 -75.36,-146.76 -167.94,-146.76 -90.43,0 -157.17,62.79 -157.17,148.91 0,38.76 10.76,75.36 23.68,112.32l314.35 808.83c-43.06,53.83 -99.04,105.5 -152.87,131.34 -51.67,25.83 -109.8,36.6 -183.01,36.6l-66.74 0c-73.21,0 -129.18,62.44 -129.18,133.49 0,71.05 55.97,131.33 129.18,131.33l62.44 0c150.71,0 299.27,-40.9 434.91,-148.56 90.43,-71.05 176.55,-180.85 249.76,-306.09l475.82 -806.32c17.23,-28.34 32.3,-62.79 32.3,-103.7zm1362.88 21.17c0,-77.51 -58.13,-139.95 -135.64,-139.95l-1029.16 0c-77.51,0 -139.95,62.44 -139.95,139.95 0,77.51 62.44,135.64 139.95,135.64l348.79 0 -133.49 960.26c-4.3,36.61 -8.61,71.05 -8.61,107.66 0,103.34 68.9,144.25 148.56,144.25 75.36,0 139.95,-40.91 155.02,-137.79l148.56 -1074.38 370.33 0c77.51,0 135.64,-58.13 135.64,-135.64z"/>
 </g>
</svg>
