<?xml version="1.0" encoding="UTF-8"?>
<!DOCTYPE svg PUBLIC "-//W3C//DTD SVG 1.1//EN" "http://www.w3.org/Graphics/SVG/1.1/DTD/svg11.dtd">
<!-- Creator: CorelDRAW 2019 (64-Bit) -->
<svg xmlns="http://www.w3.org/2000/svg" xml:space="preserve" width="297mm" height="210mm" version="1.1" style="shape-rendering:geometricPrecision; text-rendering:geometricPrecision; image-rendering:optimizeQuality; fill-rule:evenodd; clip-rule:evenodd"
viewBox="0 0 29700 21000"
 xmlns:xlink="http://www.w3.org/1999/xlink"
 xmlns:xodm="http://www.corel.com/coreldraw/odm/2003">
 <defs>
  <style type="text/css">
   <![CDATA[
    .fil1 {fill:#FEFEFE}
    .fil0 {fill:#26203A}
    .fil2 {fill:#FEFEFE;fill-rule:nonzero}
   ]]>
  </style>
 </defs>
 <g id="Слой_x0020_1">
  <metadata id="CorelCorpID_0Corel-Layer"/>
  <rect class="fil0" x="8322.98" y="7649.96" width="12525.5" height="4883.83"/>
  <path class="fil1" d="M9962.09 8781.14l0.45 0.46c40.68,-43.31 68.92,-70.35 162.58,-70.35 93.64,0 223.06,127.24 223.06,223.08 0,95.8 -30.85,129.71 -79.4,170.62l-786.22 786.17 -0.74 -0.74c-38.79,32.64 -54.62,52.31 -143.54,52.31 -88.93,0 -223.07,-134.14 -223.07,-223.07 0,-88.93 19.67,-104.73 52.31,-143.51l-0.2 -0.22 2.68 -2.67c6.78,-7.81 14.08,-15.11 21.88,-21.91l770.21 -770.17zm1782.47 -506.02c166.28,0 301.07,134.8 301.07,301.06 0,166.27 -134.79,301.07 -301.07,301.07 -166.27,0 -301.05,-134.8 -301.05,-301.07 0,-166.26 134.78,-301.06 301.05,-301.06zm502.47 1989.54c-40.06,38.21 -62.55,61.68 -154.01,61.68 -91.46,0 -223.08,-131.49 -223.08,-223.08 0,-91.59 23.69,-114.46 62.23,-154.54l-1.46 -1.45c312.8,-302.95 390.9,-388.51 699.33,-696.9l3.86 3.97c40.55,-41.99 67.36,-68.11 160.46,-68.11 93.1,0 223.06,128.15 223.06,223.08 0,94.9 -29.24,126.45 -75.58,167.32l0.28 0.3c-415.52,415.5 -283.77,276.41 -695.09,687.73l0 0zm-2874.89 1582.03c-40.93,49.74 -76.06,81.48 -172.38,81.48 -96.33,0 -223.07,-130.2 -223.07,-223.09 0,-92.9 25.77,-119.11 67.27,-159.61l-0.56 -0.59c492.1,-489.09 598.2,-593.5 1088.82,-1084.1l0.48 0.49c40.27,-39.86 64.67,-64.48 156.83,-64.48 92.21,0 223.09,130.88 223.09,223.08 0,92.18 -24.66,116.61 -64.56,156.91l0.25 0.28 -1076.17 1069.63zm1567.73 -254.78c-40.79,44.67 -70.51,72.71 -164.76,72.71 -94.21,0 -223.08,-128.83 -223.08,-223.06 0,-94.25 28.07,-124.05 72.79,-164.85l450.82 -468.1c46.65,-44.38 28.73,-155.58 -14.51,-190.7l-636.29 -634.45c-173.18,-172.21 -48.17,-364.52 1.2,-429.08l100.11 -100.11 1.68 1.68 434.14 -434.11c158.01,-137.84 316.77,-89.86 425.65,5.74l312.43 315.75 -0.06 0.03c41.93,40.56 68,67.26 68,160.35 0,93.05 -130.01,223.05 -223.08,223.05 -93.06,0 -119.75,-26.08 -160.31,-67.99l-1.7 1.69 -122.18 -128.02c-42.14,-45.14 -119.57,-73.42 -179.35,0.46l-154.38 154.36c-48.35,53.71 -50.59,115.82 -2.18,165.71l667.12 667.06c31.21,38.62 181.5,227.47 -5.92,422.92 -284.35,296.54 -346.54,360.11 -646,649.05l-0.14 -0.09z"/>
  <path class="fil2" d="M14539.09 9749.98c0,-77.51 -55.98,-127.03 -133.49,-159.32 -88.28,-34.45 -204.54,-49.52 -307.89,-49.52 -161.48,0 -320.8,40.9 -426.3,129.18 -83.97,68.9 -135.64,171.88 -135.64,313.98 0,122.37 47.36,208.49 114.11,274.88 107.65,101.19 262.67,154.66 366.02,217.1 64.59,40.9 111.96,83.97 111.96,148.2 0,58.13 -23.69,94.73 -60.29,122.72 -43.06,29.79 -107.65,42.7 -172.24,42.7 -107.66,0 -172.25,-34.09 -238.99,-70.69 -47.37,-27.99 -88.28,-49.52 -137.8,-49.52 -79.66,0 -142.1,58.13 -142.1,139.59 0,81.82 60.29,137.8 146.41,174.4 105.5,45.21 249.75,64.59 355.25,64.59 172.25,0 322.96,-36.6 424.15,-114.11 99.04,-73.2 159.33,-186.96 159.33,-333.37 0,-133.13 -51.68,-223.19 -124.88,-292.09 -96.89,-90.43 -236.83,-139.59 -335.87,-195.57 -79.67,-43.06 -135.65,-90.43 -135.65,-163.27 0,-49.52 19.38,-83.97 49.52,-105.5 38.76,-29.79 96.89,-40.55 157.18,-40.55 83.97,0 146.4,29.78 202.38,49.16 38.76,15.43 77.51,30.5 124.88,30.5 81.82,0 139.95,-53.83 139.95,-133.49l0 0zm1356.42 320.81c0,-204.54 -83.97,-344.49 -226.07,-426.31 -122.73,-68.9 -282.05,-83.97 -424.15,-83.97l-260.52 0c-77.51,0 -142.1,47.37 -155.02,142.1l-152.87 1093.75c-6.46,36.61 -10.76,71.05 -10.76,107.66 0,103.34 71.05,144.25 150.71,144.25 75.36,0 142.1,-40.91 155.02,-137.79l45.21 -325.12 221.77 0c215.3,0 368.17,-40.9 477.97,-127.03 120.57,-94.73 178.71,-234.68 178.71,-387.54zm-310.04 -8.62c0,79.67 -32.3,139.95 -77.51,185.17 -53.83,49.52 -131.34,66.74 -219.61,66.74l-232.53 0 66.74 -482.28 185.16 0c73.21,0 144.26,12.92 191.63,45.21 55.98,38.76 86.12,101.19 86.12,185.16zm1390.87 986.1c96.89,0 157.18,-58.13 157.18,-142.1 0,-34.45 -15.08,-73.2 -34.45,-105.5l-191.62 -327.26c79.66,-30.15 155.01,-79.67 210.99,-152.87 55.98,-77.51 94.74,-180.86 94.74,-314.35 0,-129.18 -47.37,-251.9 -157.17,-331.57 -90.43,-71.05 -221.77,-114.11 -404.78,-114.11l-314.34 0c-77.51,0 -142.1,47.37 -155.02,142.1l-152.87 1093.75c-6.46,36.61 -10.76,71.05 -10.76,107.66 0,103.34 71.05,144.25 150.71,144.25 75.36,0 142.1,-40.91 155.02,-137.79l53.82 -391.86 215.31 0 241.14 437.07c30.14,55.98 64.59,92.58 142.1,92.58zm-66.74 -1018.39c0,75.35 -25.84,129.18 -68.9,165.78 -53.83,45.22 -129.18,60.29 -215.3,60.29l-211 0 60.28 -432.76 185.16 0c81.82,0 144.26,19.37 185.17,53.82 43.06,34.45 64.59,86.12 64.59,152.87zm1843.01 -342.34c0,-103.34 -68.9,-146.4 -148.56,-146.4 -75.36,0 -142.1,43.06 -155.02,142.1l-101.19 727.73c-15.08,101.19 -45.22,189.47 -96.89,249.75 -55.98,68.9 -142.1,107.65 -258.37,107.65 -86.12,0 -150.71,-23.68 -195.92,-68.89 -40.91,-45.22 -64.6,-111.96 -64.6,-195.93 0,-43.06 8.62,-86.12 12.92,-131.34l79.67 -577.01c6.45,-38.76 10.76,-71.06 10.76,-107.66 0,-103.34 -71.05,-146.4 -148.56,-146.4 -77.51,0 -144.25,43.06 -155.02,142.1l-101.19 723.42c-8.62,51.67 -12.92,105.5 -12.92,146.41 0,150.71 47.37,273.44 137.79,357.41 90.43,90.42 228.23,137.79 404.78,137.79 230.37,0 406.92,-75.36 525.34,-208.85 88.28,-101.19 146.41,-234.68 167.94,-391.85l90.43 -652.37c6.46,-38.76 8.61,-71.06 8.61,-107.66zm1457.62 12.92c0,-77.51 -58.13,-139.95 -135.64,-139.95l-1029.16 0c-77.51,0 -139.95,62.44 -139.95,139.95 0,77.51 62.44,135.64 139.95,135.64l348.79 0 -133.49 960.26c-4.3,36.61 -8.61,71.05 -8.61,107.66 0,103.34 68.9,144.25 148.56,144.25 75.36,0 139.95,-40.91 155.02,-137.79l148.56 -1074.38 370.33 0c77.51,0 135.64,-58.13 135.64,-135.64z"/>
 </g>
</svg>
