<?xml version="1.0" encoding="UTF-8"?>
<svg xmlns="http://www.w3.org/2000/svg" viewBox="8322 7649 3700 4884" width="121" height="39" aria-hidden="true">
  <defs>
    <style>.fil1{fill:currentColor}</style>
  </defs>
  <path class="fil1" d="M9962.09 8781.14l0.45 0.46c40.68,-43.31 68.92,-70.35 162.58,-70.35 93.64,0 223.06,127.24 223.06,223.08 0,95.8 -30.85,129.71 -79.4,170.62l-786.22 786.17 -0.74 -0.74c-38.79,32.64 -54.62,52.31 -143.54,52.31 -88.93,0 -223.07,-134.14 -223.07,-223.07 0,-88.93 19.67,-104.73 52.31,-143.51l-0.2 -0.22 2.68 -2.67c6.78,-7.81 14.08,-15.11 21.88,-21.91l770.21 -770.17zm1782.47 -506.02c166.28,0 301.07,134.8 301.07,301.06 0,166.27 -134.79,301.07 -301.07,301.07 -166.27,0 -301.05,-134.8 -301.05,-301.07 0,-166.26 134.78,-301.06 301.05,-301.06zm502.47 1989.54c-40.06,38.21 -62.55,61.68 -154.01,61.68 -91.46,0 -223.08,-131.49 -223.08,-223.08 0,-91.59 23.69,-114.46 62.23,-154.54l-1.46 -1.45c312.8,-302.95 390.9,-388.51 699.33,-696.9l3.86 3.97c40.55,-41.99 67.36,-68.11 160.46,-68.11 93.1,0 223.06,128.15 223.06,223.08 0,94.9 -29.24,126.45 -75.58,167.32l0.28 0.3c-415.52,415.5 -283.77,276.41 -695.09,687.73l0 0zm-2874.89 1582.03c-40.93,49.74 -76.06,81.48 -172.38,81.48 -96.33,0 -223.07,-130.2 -223.07,-223.09 0,-92.9 25.77,-119.11 67.27,-159.61l-0.56 -0.59c492.1,-489.09 598.2,-593.5 1088.82,-1084.1l0.48 0.49c40.27,-39.86 64.67,-64.48 156.83,-64.48 92.21,0 223.09,130.88 223.09,223.08 0,92.18 -24.66,116.61 -64.56,156.91l0.25 0.28 -1076.17 1069.63zm1567.73 -254.78c-40.79,44.67 -70.51,72.71 -164.76,72.71 -94.21,0 -223.08,-128.83 -223.08,-223.06 0,-94.25 28.07,-124.05 72.79,-164.85l450.82 -468.1c46.65,-44.38 28.73,-155.58 -14.51,-190.7l-636.29 -634.45c-173.18,-172.21 -48.17,-364.52 1.2,-429.08l100.11 -100.11 1.68 1.68 434.14 -434.11c158.01,-137.84 316.77,-89.86 425.65,5.74l312.43 315.75 -0.06 0.03c41.93,40.56 68,67.26 68,160.35 0,93.05 -130.01,223.05 -223.08,223.05 -93.06,0 -119.75,-26.08 -160.31,-67.99l-1.7 1.69 -122.18 -128.02c-42.14,-45.14 -119.57,-73.42 -179.35,0.46l-154.38 154.36c-48.35,53.71 -50.59,115.82 -2.18,165.71l667.12 667.06c31.21,38.62 181.5,227.47 -5.92,422.92 -284.35,296.54 -346.54,360.11 -646,649.05l-0.14 -0.09z"/>
</svg>
